<svg xmlns="http://www.w3.org/2000/svg" xmlns:d="http://www.mathworks.com/blockgraphics" xmlns:xlink="http://www.w3.org/1999/xlink" version="1.1" id="svg" width="100" height="75" viewBox="0 0 100 75" fill="none">
	<g id="part" title="part_0" ie-ports="left:,top:simulink,right:simulink,bottom:simulink">
		<rect id="rect" fill="white" style="stroke: #f0f0f0;" x="0" y="0" width="100" height="75" rx="0" ry="0"/>
		<rect id="rect_1" stroke="black" style="stroke:#1171be;" x="40.5" y="52.5" width="20" height="2" rx="0.5" ry="0.5"/>
		<path id="path" stroke="black" style="stroke:#1171be;" d=" M 41.5,54.5 H 59.5 V 68 C 59.5,68.28 59.28,68.5 59,68.5 H 42 C 41.72,68.5 41.5,68.28 41.5,68 V 54.5 Z"/>
		<path id="path_2" stroke="black" stroke-linecap="square" style="stroke:#1171be;" d=" M 40.5,56.5 H 39.5 C 38.95,56.5 38.5,56.95 38.5,57.5 V 66.5 C 38.5,67.05 38.95,67.5 39.5,67.5 H 40.5"/>
		<rect id="rect_3" stroke="black" style="stroke:#1171be;" x="44.5" y="57" width="12" height="9" rx="0.5" ry="0.5"/>
		<path id="path_4" stroke="black" stroke-linecap="square" style="stroke:#1171be;" d=" M 46.5,57 V 66"/>
		<path id="path_5" stroke="black" stroke-linecap="square" style="stroke:#1171be;" d=" M 48.5,57 V 66"/>
		<path id="path_6" stroke="black" stroke-linecap="square" style="stroke:#1171be;" d=" M 50.5,57 V 66"/>
		<path id="path_7" stroke="black" stroke-linecap="square" style="stroke:#1171be;" d=" M 52.5,57 V 66"/>
		<path id="path_8" stroke="black" stroke-linecap="square" style="stroke:#1171be;" d=" M 54.5,57 V 66"/>
		<path id="path_9" stroke="black" style="stroke:#1171be;" d=" M 43.5,68.5 H 47.5 V 70 C 47.5,70.28 47.28,70.5 47,70.5 H 44 C 43.72,70.5 43.5,70.28 43.5,70 V 68.5 Z"/>
		<path id="path_10" stroke="black" style="stroke:#1171be;" d=" M 53.5,68.5 H 57.5 V 70 C 57.5,70.28 57.28,70.5 57,70.5 H 54 C 53.72,70.5 53.5,70.28 53.5,70 V 68.5 Z"/>
		<path id="path_11" stroke="black" style="stroke:#1171be;" d=" M 55.85,49.7 C 55.94,49.57 56.09,49.5 56.25,49.5 H 57.75 C 57.91,49.5 58.06,49.57 58.15,49.7 L 58.9,50.7 C 59.15,51.03 58.91,51.5 58.5,51.5 H 55.5 C 55.09,51.5 54.85,51.03 55.1,50.7 L 55.85,49.7 Z"/>
		<path id="path_12" stroke="black" style="stroke:#1171be;" d=" M 55.85,43.7 C 55.94,43.57 56.09,43.5 56.25,43.5 H 57.75 C 57.91,43.5 58.06,43.57 58.15,43.7 L 58.9,44.7 C 59.15,45.03 58.91,45.5 58.5,45.5 H 55.5 C 55.09,45.5 54.85,45.03 55.1,44.7 L 55.85,43.7 Z"/>
		<path id="path_13" stroke="black" style="stroke:#1171be;" d=" M 55.85,46.7 C 55.94,46.57 56.09,46.5 56.25,46.5 H 57.75 C 57.91,46.5 58.06,46.57 58.15,46.7 L 58.9,47.7 C 59.15,48.03 58.91,48.5 58.5,48.5 H 55.5 C 55.09,48.5 54.85,48.03 55.1,47.7 L 55.85,46.7 Z"/>
		<path id="path_14" stroke="black" style="stroke:#1171be;" d=" M 56,43.5 V 43.5 C 56,42.95 56.45,42.5 57,42.5 V 42.5 C 57.55,42.5 58,42.95 58,43.5 V 43.5"/>
		<path id="path_15" stroke="black" style="stroke:#1171be;" d=" M 48.85,49.7 C 48.94,49.57 49.09,49.5 49.25,49.5 H 50.75 C 50.91,49.5 51.06,49.57 51.15,49.7 L 51.9,50.7 C 52.15,51.03 51.91,51.5 51.5,51.5 H 48.5 C 48.09,51.5 47.85,51.03 48.1,50.7 L 48.85,49.7 Z"/>
		<path id="path_16" stroke="black" style="stroke:#1171be;" d=" M 48.85,43.7 C 48.94,43.57 49.09,43.5 49.25,43.5 H 50.75 C 50.91,43.5 51.06,43.57 51.15,43.7 L 51.9,44.7 C 52.15,45.03 51.91,45.5 51.5,45.5 H 48.5 C 48.09,45.5 47.85,45.03 48.1,44.7 L 48.85,43.7 Z"/>
		<path id="path_17" stroke="black" style="stroke:#1171be;" d=" M 48.85,46.7 C 48.94,46.57 49.09,46.5 49.25,46.5 H 50.75 C 50.91,46.5 51.06,46.57 51.15,46.7 L 51.9,47.7 C 52.15,48.03 51.91,48.5 51.5,48.5 H 48.5 C 48.09,48.5 47.85,48.03 48.1,47.7 L 48.85,46.7 Z"/>
		<path id="path_18" stroke="black" style="stroke:#1171be;" d=" M 49,43.5 V 43.5 C 49,42.95 49.45,42.5 50,42.5 V 42.5 C 50.55,42.5 51,42.95 51,43.5 V 43.5"/>
		<path id="path_19" stroke="black" style="stroke:#1171be;" d=" M 41.85,49.7 C 41.94,49.57 42.09,49.5 42.25,49.5 H 43.75 C 43.91,49.5 44.06,49.57 44.15,49.7 L 44.9,50.7 C 45.15,51.03 44.91,51.5 44.5,51.5 H 41.5 C 41.09,51.5 40.85,51.03 41.1,50.7 L 41.85,49.7 Z"/>
		<path id="path_20" stroke="black" style="stroke:#1171be;" d=" M 41.85,43.7 C 41.94,43.57 42.09,43.5 42.25,43.5 H 43.75 C 43.91,43.5 44.06,43.57 44.15,43.7 L 44.9,44.7 C 45.15,45.03 44.91,45.5 44.5,45.5 H 41.5 C 41.09,45.5 40.85,45.03 41.1,44.7 L 41.85,43.7 Z"/>
		<path id="path_21" stroke="black" style="stroke:#1171be;" d=" M 41.85,46.7 C 41.94,46.57 42.09,46.5 42.25,46.5 H 43.75 C 43.91,46.5 44.06,46.57 44.15,46.7 L 44.9,47.7 C 45.15,48.03 44.91,48.5 44.5,48.5 H 41.5 C 41.09,48.5 40.85,48.03 41.1,47.7 L 41.85,46.7 Z"/>
		<path id="path_22" stroke="black" style="stroke:#1171be;" d=" M 42,43.5 V 43.5 C 42,42.95 42.45,42.5 43,42.5 V 42.5 C 43.55,42.5 44,42.95 44,43.5 V 43.5"/>
		<path id="path_23" stroke="black" style="stroke:#1171be;" d=" M 30.07,40.11 V 70.5 C 30.07,71.05 30.52,71.5 31.07,71.5 H 68.93 C 69.48,71.5 69.93,71.05 69.93,70.5 V 40.11 M 30.07,40.11 L 49.71,34.09 C 49.9,34.03 50.1,34.03 50.29,34.09 L 69.93,40.11 M 30.07,40.11 L 28.28,40.63 C 27.64,40.81 27,40.34 27,39.67 V 37.26 C 27,36.81 27.3,36.42 27.73,36.29 L 49.73,30.08 C 49.91,30.03 50.09,30.03 50.27,30.08 L 72.27,36.29 C 72.7,36.42 73,36.81 73,37.26 V 39.67 C 73,40.34 72.36,40.81 71.72,40.63 L 69.93,40.11"/>
		<path id="path_24" stroke="black" stroke-linecap="round" stroke-linejoin="round" style="stroke:#1171be;" d=" M 12.45,22.12 L 0.5,27.5 H 12.5"/>
		<path id="path_25" stroke="black" stroke-linecap="round" stroke-linejoin="round" style="stroke:#1171be;" d=" M 23.57,22.12 L 35.5,27.5 H 23.5"/>
		<path id="path_26" stroke="black" stroke-linecap="round" stroke-linejoin="round" style="stroke:#1171be;" d=" M 6.5,71.5 L 23.5,47.5"/>
		<path id="path_27" stroke="black" stroke-linecap="round" stroke-linejoin="round" style="stroke:#1171be;" d=" M 29.5,71.5 L 12.5,47.5"/>
		<path id="path_28" stroke="black" stroke-linecap="round" stroke-linejoin="round" style="stroke:#1171be;" d=" M 12.5,47.5 H 23.5"/>
		<path id="path_29" stroke="black" stroke-linecap="round" style="stroke:#1171be;" d=" M 6.5,71.5 L 12.48,47.77 C 12.49,47.73 12.5,47.69 12.5,47.65 V 22.12 C 12.5,22.04 12.52,21.96 12.56,21.89 L 17.56,12.35 C 17.74,11.99 18.26,11.99 18.44,12.35 L 23.44,21.89 C 23.48,21.96 23.5,22.04 23.5,22.12 L 23.57,47.65 C 23.57,47.69 23.58,47.73 23.59,47.77 L 29.5,71.5"/>
		<path id="path_30" stroke="black" stroke-linecap="round" stroke-linejoin="round" style="stroke:#1171be;" d=" M 12.5,35.5 H 23.5"/>
		<path id="path_31" stroke="black" stroke-linecap="round" stroke-linejoin="round" style="stroke:#1171be;" d=" M 12.5,22.5 H 23.5"/>
		<path id="path_32" stroke="black" stroke-linecap="round" stroke-linejoin="round" style="stroke:#1171be;" d=" M 12.5,22.5 L 23.5,35.5"/>
		<path id="path_33" stroke="black" stroke-linecap="round" stroke-linejoin="round" style="stroke:#1171be;" d=" M 12.5,35.5 L 23.5,22.5"/>
		<path id="path_34" stroke="black" stroke-linecap="round" stroke-linejoin="round" style="stroke:#1171be;" d=" M 12.5,47.5 L 23.5,35.5"/>
		<path id="path_35" stroke="black" stroke-linecap="round" stroke-linejoin="round" style="stroke:#1171be;" d=" M 12.5,35.5 L 23.5,47.5"/>
		<path id="path_36" stroke="black" stroke-linecap="round" stroke-linejoin="round" style="stroke:#1171be;" d=" M 76.45,22.12 L 64.5,27.5 H 76.5"/>
		<path id="path_37" stroke="black" stroke-linecap="round" stroke-linejoin="round" style="stroke:#1171be;" d=" M 87.57,22.12 L 99.5,27.5 H 87.5"/>
		<path id="path_38" stroke="black" stroke-linecap="round" stroke-linejoin="round" style="stroke:#1171be;" d=" M 70.5,71.5 L 87.5,47.5"/>
		<path id="path_39" stroke="black" stroke-linecap="round" stroke-linejoin="round" style="stroke:#1171be;" d=" M 93.5,71.5 L 76.5,47.5"/>
		<path id="path_40" stroke="black" stroke-linecap="round" stroke-linejoin="round" style="stroke:#1171be;" d=" M 76.5,47.5 H 87.5"/>
		<path id="path_41" stroke="black" stroke-linecap="round" style="stroke:#1171be;" d=" M 70.5,71.5 L 76.48,47.77 C 76.49,47.73 76.5,47.69 76.5,47.65 V 22.12 C 76.5,22.04 76.52,21.96 76.56,21.89 L 81.56,12.35 C 81.74,11.99 82.26,11.99 82.44,12.35 L 87.44,21.89 C 87.48,21.96 87.5,22.04 87.5,22.12 L 87.57,47.65 C 87.57,47.69 87.58,47.73 87.59,47.77 L 93.5,71.5"/>
		<path id="path_42" stroke="black" stroke-linecap="round" stroke-linejoin="round" style="stroke:#1171be;" d=" M 76.5,35.5 H 87.5"/>
		<path id="path_43" stroke="black" stroke-linecap="round" stroke-linejoin="round" style="stroke:#1171be;" d=" M 76.5,22.5 H 87.5"/>
		<path id="path_44" stroke="black" stroke-linecap="round" stroke-linejoin="round" style="stroke:#1171be;" d=" M 76.5,22.5 L 87.5,35.5"/>
		<path id="path_45" stroke="black" stroke-linecap="round" stroke-linejoin="round" style="stroke:#1171be;" d=" M 76.5,35.5 L 87.5,22.5"/>
		<path id="path_46" stroke="black" stroke-linecap="round" stroke-linejoin="round" style="stroke:#1171be;" d=" M 76.5,47.5 L 87.5,35.5"/>
		<path id="path_47" stroke="black" stroke-linecap="round" stroke-linejoin="round" style="stroke:#1171be;" d=" M 76.5,35.5 L 87.5,47.5"/>
		<path id="path_48" stroke="black" stroke-linecap="round" style="stroke:#1171be;" d=" M 4.5,71.5 H 8.5"/>
		<path id="path_49" stroke="black" stroke-linecap="round" style="stroke:#1171be;" d=" M 27,71.5 H 31"/>
		<path id="path_50" stroke="black" stroke-linecap="round" style="stroke:#1171be;" d=" M 69,71.5 H 73"/>
		<path id="path_51" stroke="black" stroke-linecap="round" style="stroke:#1171be;" d=" M 91.5,71.5 H 95.5"/>
		<path id="path_52" stroke="black" stroke-linecap="round" style="stroke:#1171be;" d=" M 35.5,27.5 C 39.17,28.33 50.1,29.5 64.5,27.5"/>
	</g>
</svg>
