<svg xmlns="http://www.w3.org/2000/svg" xmlns:d="http://www.mathworks.com/blockgraphics" xmlns:xlink="http://www.w3.org/1999/xlink" version="1.1" id="svg" width="50" height="50" viewBox="0 0 50 50" fill="none">
	<g id="part" title="part_0" ie-ports="left:simulink,top:simulink,right:,bottom:">
		<rect id="rect" fill="white" style="stroke: #ffffff;" x="0" y="0" width="50" height="50" rx="0" ry="0"/>
		<path id="path" stroke="black" style="stroke: #1171be;" d=" M 9.43,20.5 H 10.57 C 10.83,20.5 11.05,20.7 11.07,20.96 L 11.92,32.96 C 11.95,33.25 11.72,33.5 11.43,33.5 H 8.57 C 8.28,33.5 8.05,33.25 8.08,32.96 L 8.93,20.96 C 8.95,20.7 9.17,20.5 9.43,20.5 Z"/>
		<path id="path_1" stroke="black" style="stroke: #1171be;" d=" M 8.29,11.04 L 10.33,16.82 C 10.43,17.08 10.29,17.37 10.03,17.46 C 9.82,17.53 9.59,17.46 9.46,17.3 L 8.38,15.9 C 8.33,15.84 8.3,15.77 8.28,15.69 L 7.46,11.27 C 7.42,11.06 7.54,10.85 7.74,10.78 C 7.96,10.7 8.21,10.82 8.29,11.04 Z"/>
		<path id="path_2" fill="white" stroke="black" style="stroke: #1171be;" d=" M 3.54,22.91 L 8.27,19.02 C 8.48,18.85 8.8,18.88 8.98,19.09 C 9.11,19.26 9.13,19.5 9.01,19.68 L 8.08,21.17 C 8.03,21.24 7.97,21.3 7.91,21.34 L 4.03,23.62 C 3.85,23.72 3.61,23.68 3.48,23.52 C 3.33,23.33 3.35,23.06 3.54,22.91 Z"/>
		<path id="path_3" fill="white" stroke="black" style="stroke: #1171be;" d=" M 17.57,19.45 L 11.45,19.62 C 11.18,19.62 10.94,19.41 10.94,19.13 C 10.93,18.91 11.06,18.71 11.26,18.64 L 12.92,18.04 C 13,18.01 13.08,18 13.16,18.01 L 17.62,18.59 C 17.83,18.62 17.99,18.79 17.99,19.01 C 18,19.24 17.81,19.44 17.57,19.45 Z"/>
		<rect id="rect_4" fill="white" stroke="black" style="stroke: #1171be;" x="9" y="18" width="2" height="2" rx="0.5" ry="0.5"/>
		<path id="path_5" stroke="black" style="stroke: #1171be;" d=" M 9.43,20.5 H 10.57 C 10.83,20.5 11.05,20.7 11.07,20.96 L 11.92,32.96 C 11.95,33.25 11.72,33.5 11.43,33.5 H 8.57 C 8.28,33.5 8.05,33.25 8.08,32.96 L 8.93,20.96 C 8.95,20.7 9.17,20.5 9.43,20.5 Z"/>
		<path id="path_6" stroke="black" style="stroke: #1171be;" d=" M 8.29,11.04 L 10.33,16.82 C 10.43,17.08 10.29,17.37 10.03,17.46 C 9.82,17.53 9.59,17.46 9.46,17.3 L 8.38,15.9 C 8.33,15.84 8.3,15.77 8.28,15.69 L 7.46,11.27 C 7.42,11.06 7.54,10.85 7.74,10.78 C 7.96,10.7 8.21,10.82 8.29,11.04 Z"/>
		<path id="path_7" fill="white" stroke="black" style="stroke: #1171be;" d=" M 3.54,22.91 L 8.27,19.02 C 8.48,18.85 8.8,18.88 8.98,19.09 C 9.11,19.26 9.13,19.5 9.01,19.68 L 8.08,21.17 C 8.03,21.24 7.97,21.3 7.91,21.34 L 4.03,23.62 C 3.85,23.72 3.61,23.68 3.48,23.52 C 3.33,23.33 3.35,23.06 3.54,22.91 Z"/>
		<path id="path_8" fill="white" stroke="black" style="stroke: #1171be;" d=" M 17.57,19.45 L 11.45,19.62 C 11.18,19.62 10.94,19.41 10.94,19.13 C 10.93,18.91 11.06,18.71 11.26,18.64 L 12.92,18.04 C 13,18.01 13.08,18 13.16,18.01 L 17.62,18.59 C 17.83,18.62 17.99,18.79 17.99,19.01 C 18,19.24 17.81,19.44 17.57,19.45 Z"/>
		<rect id="rect_9" fill="white" stroke="black" style="stroke: #1171be;" x="9" y="18" width="2" height="2" rx="0.5" ry="0.5"/>
		<path id="path_10" stroke="black" style="stroke: #1171be;" d=" M 37.43,20.5 H 38.57 C 38.83,20.5 39.05,20.7 39.07,20.96 L 39.92,32.96 C 39.95,33.25 39.72,33.5 39.43,33.5 H 36.57 C 36.28,33.5 36.05,33.25 36.08,32.96 L 36.93,20.96 C 36.95,20.7 37.17,20.5 37.43,20.5 Z"/>
		<path id="path_11" stroke="black" style="stroke: #1171be;" d=" M 36.29,11.04 L 38.33,16.82 C 38.43,17.08 38.29,17.37 38.03,17.46 C 37.82,17.53 37.59,17.46 37.46,17.3 L 36.38,15.9 C 36.33,15.84 36.3,15.77 36.28,15.69 L 35.46,11.27 C 35.42,11.06 35.54,10.85 35.74,10.78 C 35.96,10.7 36.21,10.82 36.29,11.04 Z"/>
		<path id="path_12" fill="white" stroke="black" style="stroke: #1171be;" d=" M 31.54,22.91 L 36.27,19.02 C 36.48,18.85 36.8,18.88 36.98,19.09 C 37.11,19.26 37.13,19.5 37.02,19.68 L 36.08,21.17 C 36.03,21.24 35.97,21.3 35.91,21.34 L 32.03,23.62 C 31.85,23.72 31.61,23.68 31.48,23.52 C 31.33,23.33 31.35,23.06 31.54,22.91 Z"/>
		<path id="path_13" fill="white" stroke="black" style="stroke: #1171be;" d=" M 45.57,19.45 L 39.45,19.62 C 39.17,19.62 38.94,19.41 38.94,19.13 C 38.93,18.91 39.06,18.71 39.26,18.64 L 40.92,18.04 C 41,18.01 41.08,18 41.16,18.01 L 45.62,18.59 C 45.83,18.62 45.99,18.79 45.99,19.01 C 46,19.24 45.81,19.44 45.57,19.45 Z"/>
		<rect id="rect_14" fill="white" stroke="black" style="stroke: #1171be;" x="37" y="18" width="2" height="2" rx="0.5" ry="0.5"/>
		<path id="path_15" stroke="black" style="stroke: #1171be;" d=" M 37.43,20.5 H 38.57 C 38.83,20.5 39.05,20.7 39.07,20.96 L 39.92,32.96 C 39.95,33.25 39.72,33.5 39.43,33.5 H 36.57 C 36.28,33.5 36.05,33.25 36.08,32.96 L 36.93,20.96 C 36.95,20.7 37.17,20.5 37.43,20.5 Z"/>
		<path id="path_16" stroke="black" style="stroke: #1171be;" d=" M 36.29,11.04 L 38.33,16.82 C 38.43,17.08 38.29,17.37 38.03,17.46 C 37.82,17.53 37.59,17.46 37.46,17.3 L 36.38,15.9 C 36.33,15.84 36.3,15.77 36.28,15.69 L 35.46,11.27 C 35.42,11.06 35.54,10.85 35.74,10.78 C 35.96,10.7 36.21,10.82 36.29,11.04 Z"/>
		<path id="path_17" fill="white" stroke="black" style="stroke: #1171be;" d=" M 31.54,22.91 L 36.27,19.02 C 36.48,18.85 36.8,18.88 36.98,19.09 C 37.11,19.26 37.13,19.5 37.02,19.68 L 36.08,21.17 C 36.03,21.24 35.97,21.3 35.91,21.34 L 32.03,23.62 C 31.85,23.72 31.61,23.68 31.48,23.52 C 31.33,23.33 31.35,23.06 31.54,22.91 Z"/>
		<path id="path_18" fill="white" stroke="black" style="stroke: #1171be;" d=" M 45.57,19.45 L 39.45,19.62 C 39.17,19.62 38.94,19.41 38.94,19.13 C 38.93,18.91 39.06,18.71 39.26,18.64 L 40.92,18.04 C 41,18.01 41.08,18 41.16,18.01 L 45.62,18.59 C 45.83,18.62 45.99,18.79 45.99,19.01 C 46,19.24 45.81,19.44 45.57,19.45 Z"/>
		<rect id="rect_19" fill="white" stroke="black" style="stroke: #1171be;" x="37" y="18" width="2" height="2" rx="0.5" ry="0.5"/>
		<path id="path_20" stroke="black" style="stroke: #1171be;" d=" M 23.43,21.5 H 24.57 C 24.83,21.5 25.05,21.7 25.07,21.96 L 25.92,33.96 C 25.95,34.25 25.72,34.5 25.43,34.5 H 22.57 C 22.28,34.5 22.05,34.25 22.08,33.96 L 22.93,21.96 C 22.95,21.7 23.17,21.5 23.43,21.5 Z"/>
		<path id="path_21" stroke="black" style="stroke: #1171be;" d=" M 22.29,12.04 L 24.33,17.82 C 24.43,18.08 24.29,18.37 24.03,18.46 C 23.82,18.53 23.59,18.46 23.46,18.3 L 22.38,16.9 C 22.33,16.84 22.3,16.77 22.28,16.69 L 21.46,12.27 C 21.42,12.06 21.54,11.85 21.74,11.78 C 21.96,11.7 22.21,11.82 22.29,12.04 Z"/>
		<path id="path_22" fill="white" stroke="black" style="stroke: #1171be;" d=" M 17.54,23.91 L 22.27,20.02 C 22.48,19.85 22.8,19.88 22.98,20.09 C 23.11,20.26 23.13,20.5 23.02,20.68 L 22.08,22.17 C 22.03,22.24 21.97,22.3 21.91,22.34 L 18.03,24.62 C 17.85,24.72 17.61,24.68 17.48,24.52 C 17.33,24.33 17.35,24.06 17.54,23.91 Z"/>
		<path id="path_23" fill="white" stroke="black" style="stroke: #1171be;" d=" M 31.57,20.45 L 25.45,20.62 C 25.18,20.62 24.94,20.41 24.94,20.13 C 24.93,19.91 25.06,19.71 25.26,19.64 L 26.92,19.04 C 27,19.01 27.08,19 27.16,19.01 L 31.62,19.59 C 31.83,19.62 31.99,19.79 31.99,20.01 C 32,20.24 31.81,20.44 31.57,20.45 Z"/>
		<rect id="rect_24" fill="white" stroke="black" style="stroke: #1171be;" x="23" y="19" width="2" height="2" rx="0.5" ry="0.5"/>
		<path id="path_25" stroke="black" style="stroke: #1171be;" d=" M 23.43,21.5 H 24.57 C 24.83,21.5 25.05,21.7 25.07,21.96 L 25.92,33.96 C 25.95,34.25 25.72,34.5 25.43,34.5 H 22.57 C 22.28,34.5 22.05,34.25 22.08,33.96 L 22.93,21.96 C 22.95,21.7 23.17,21.5 23.43,21.5 Z"/>
		<path id="path_26" stroke="black" style="stroke: #1171be;" d=" M 22.29,12.04 L 24.33,17.82 C 24.43,18.08 24.29,18.37 24.03,18.46 C 23.82,18.53 23.59,18.46 23.46,18.3 L 22.38,16.9 C 22.33,16.84 22.3,16.77 22.28,16.69 L 21.46,12.27 C 21.42,12.06 21.54,11.85 21.74,11.78 C 21.96,11.7 22.21,11.82 22.29,12.04 Z"/>
		<path id="path_27" fill="white" stroke="black" style="stroke: #1171be;" d=" M 17.54,23.91 L 22.27,20.02 C 22.48,19.85 22.8,19.88 22.98,20.09 C 23.11,20.26 23.13,20.5 23.02,20.68 L 22.08,22.17 C 22.03,22.24 21.97,22.3 21.91,22.34 L 18.03,24.62 C 17.85,24.72 17.61,24.68 17.48,24.52 C 17.33,24.33 17.35,24.06 17.54,23.91 Z"/>
		<path id="path_28" fill="white" stroke="black" style="stroke: #1171be;" d=" M 31.57,20.45 L 25.45,20.62 C 25.18,20.62 24.94,20.41 24.94,20.13 C 24.93,19.91 25.06,19.71 25.26,19.64 L 26.92,19.04 C 27,19.01 27.08,19 27.16,19.01 L 31.62,19.59 C 31.83,19.62 31.99,19.79 31.99,20.01 C 32,20.24 31.81,20.44 31.57,20.45 Z"/>
		<rect id="rect_29" fill="white" stroke="black" style="stroke: #1171be;" x="23" y="19" width="2" height="2" rx="0.5" ry="0.5"/>
		<path id="path_30" stroke="black" stroke-linecap="round" style="stroke: #1171be;" d=" M 6.5,33.5 H 13.5"/>
		<path id="path_31" stroke="black" stroke-linecap="round" style="stroke: #1171be;" d=" M 19.5,34.5 H 28.5"/>
		<path id="path_32" stroke="black" stroke-linecap="round" style="stroke: #1171be;" d=" M 34.5,33.5 H 41.5"/>
	</g>
</svg>
